<?xml version="1.0" encoding="utf-8"?>
<!-- Generator: Adobe Illustrator 22.0.1, SVG Export Plug-In . SVG Version: 6.00 Build 0)  -->
<svg version="1.1" id="Capa_1" xmlns="http://www.w3.org/2000/svg" xmlns:xlink="http://www.w3.org/1999/xlink" x="0px" y="0px"
	 viewBox="0 0 32.1 37" style="enable-background:new 0 0 32.1 37;" xml:space="preserve">
<style type="text/css">
	.st0{fill:#FFFFFF;stroke:#FFFFFF;stroke-miterlimit:10;}
</style>
<g id="turkey_2_">
	<path class="st0" d="M12.2,14.9c-5.2-1-8.8,0.4-10.4,1.4c0.6-2.9,3.5-4.5,3.6-4.6c0.4-0.3,0.9-0.5,1.5-0.7c0.3-0.1,0.5-0.4,0.4-0.7
		C7.1,10,6.7,9.8,6.4,9.9c-0.7,0.2-1.3,0.5-1.7,0.8c-0.2,0.1-4.2,2.5-4.2,6.7c0,0.2,0.1,0.4,0.3,0.5c0.1,0,0.2,0.1,0.2,0.1
		c0.1,0,0.3,0,0.4-0.1c0,0,3.9-3.2,10.5-1.8c0.3,0.1,0.6-0.1,0.7-0.4C12.7,15.2,12.5,14.9,12.2,14.9z"/>
	<path class="st0" d="M8.4,11.9c-0.1-0.3-0.4-0.5-0.7-0.4l-1.1,0.3c-0.3,0.1-0.5,0.4-0.4,0.7c0.1,0.3,0.3,0.4,0.5,0.4
		c0,0,0.1,0,0.1,0l1.1-0.3C8.3,12.5,8.4,12.2,8.4,11.9z"/>
	<path class="st0" d="M19.6,7.3C19.6,7.3,19.6,7.3,19.6,7.3c-0.3,0-0.6,0.3-0.6,0.6c0,0.7-0.6,1.1-0.8,1.2c-0.6,0.3-1.4,0.2-1.9-0.2
		c-0.2-0.2-0.6-0.2-0.8,0c-0.2,0.2-0.2,0.6,0,0.8c0.5,0.4,1.2,0.7,1.9,0.7c0.4,0,0.9-0.1,1.3-0.3c0.9-0.4,1.5-1.3,1.5-2.3
		C20.2,7.5,19.9,7.3,19.6,7.3z"/>
	<path class="st0" d="M7.1,14.8c-0.3,0-0.6,0.2-0.6,0.5c-0.8,5.6-1.4,7.6-1.7,8.3c-0.6-1.3-0.5-5.3-0.2-7.6c0-0.3-0.2-0.6-0.5-0.6
		c-0.3,0-0.6,0.2-0.6,0.5c-0.1,0.7-0.7,6.6,0.5,8.5C4.1,24.7,4.3,25,4.8,25c0,0,0,0,0.1,0c0.6,0,1.5-0.1,2.8-9.6
		C7.6,15.2,7.4,14.9,7.1,14.8z"/>
	<path class="st0" d="M17,14.7c-0.1-0.3-0.4-0.5-0.7-0.4c-0.3,0.1-0.5,0.4-0.4,0.7c2.6,9.6,0.8,14.6-1.1,17.2
		c-1.8,2.5-4.2,3.2-5.4,3.2c-1.3,0-2.5-0.5-3.3-1.4C5.3,33,5,31.8,5.2,30.5c0.3-1.5,1.7-3.6,3.1-5.6c2.2-3.1,4.2-6,3.3-8.2
		c-0.4-1.1-1.5-1.8-3.3-2.2c-0.3-0.1-0.6,0.1-0.7,0.4c-0.1,0.3,0.1,0.6,0.4,0.7c1.4,0.3,2.2,0.8,2.5,1.5c0.6,1.6-1.4,4.5-3.2,7.1
		c-1.5,2.2-3,4.3-3.3,6.1c-0.3,1.6,0.1,3.2,1.1,4.4c1,1.2,2.5,1.8,4,1.8c0.1,0,0.1,0,0.2,0c1.7,0,4.3-1,6.2-3.7
		C17.7,30.1,19.6,24.7,17,14.7z"/>
	<path class="st0" d="M10.1,6.7c-1.5,0-2.8,0.2-3.7,0.6c-2.2,1.2-2.6,4-2.6,4.1C3.8,11.7,4,12,4.3,12c0,0,0,0,0.1,0
		c0.3,0,0.5-0.2,0.6-0.5c0,0,0.3-2.3,2-3.2C7.6,7.9,8.7,7.8,10,7.8c0.4,0,0.6-0.2,0.6-0.5C10.6,6.9,10.4,6.7,10.1,6.7z"/>
	<path class="st0" d="M30.6,7.4C28.9,3,24.7,0.6,18.5,0.5c-0.1,0-0.1,0-0.2,0c-7.7,0-10.7,6.2-10.7,6.2C7.5,7,7.7,7.3,7.9,7.5
		c0.3,0.1,0.6,0,0.7-0.3c0-0.1,2.7-5.6,9.7-5.6c0,0,0.1,0,0.1,0c4,0,9.1,1.2,11.1,6.2c2.2,5.7-0.3,11.1-2.8,14.5
		c-3.8,4.6-5.2,8.7-4.8,13.6c0,0.3,0.3,0.5,0.6,0.5c0,0,0,0,0,0c0.3,0,0.5-0.3,0.5-0.6c-0.4-4.6,1-8.4,4.6-12.8
		C31.5,17.7,32.5,12.3,30.6,7.4z"/>
</g>
</svg>
