<?xml version="1.0" encoding="utf-8"?>
<!-- Generator: Adobe Illustrator 22.0.1, SVG Export Plug-In . SVG Version: 6.00 Build 0)  -->
<svg version="1.1" id="Capa_1" xmlns="http://www.w3.org/2000/svg" xmlns:xlink="http://www.w3.org/1999/xlink" x="0px" y="0px"
	 viewBox="0 0 37 37" style="enable-background:new 0 0 37 37;" xml:space="preserve">
<style type="text/css">
	.st0{fill:#FFFFFF;stroke:#FFFFFF;stroke-miterlimit:10;}
</style>
<g id="rabbit">
	<path class="st0" d="M12,17.4c-0.3-0.1-0.6,0-0.7,0.3c-0.3,0.7-0.6,1.1-1.1,1.2c-0.7,0.2-1.4-0.3-1.4-0.3c-0.2-0.2-0.6-0.1-0.8,0.1
		c-0.2,0.2-0.1,0.6,0.1,0.8c0,0,0.8,0.6,1.8,0.6c0.2,0,0.4,0,0.6-0.1c0.8-0.2,1.4-0.9,1.8-1.9C12.4,17.8,12.3,17.5,12,17.4z"/>
	<path class="st0" d="M36.2,22.3c-3.5-1.6-8.5-1-8.8-1c-2,0.3-2.8-0.1-3.1-0.3c-0.2-0.2-0.2-0.3-0.2-0.4c-0.6-4.6-2.9-7-3-7.1
		c-0.2-0.2-0.6-0.2-0.8,0c-0.2,0.2-0.2,0.6,0,0.8c0,0,2.1,2.2,2.6,6.3c0,0.1,0,0.6,0.6,1.1c0.8,0.6,2.1,0.8,4,0.6
		c0,0,4.9-0.6,8.1,0.9c0.1,0,0.2,0.1,0.2,0.1c0.2,0,0.4-0.1,0.5-0.3C36.6,22.8,36.5,22.4,36.2,22.3z"/>
	<path class="st0" d="M10.6,35.7c-1.1-2.1-1.1-6.4-1.1-6.5c0-0.3-0.3-0.6-0.6-0.6c-0.3,0-0.6,0.3-0.6,0.6c0,0.2,0,4.7,1.2,7
		c0.1,0.2,0.3,0.3,0.5,0.3c0.1,0,0.2,0,0.3-0.1C10.6,36.3,10.7,35.9,10.6,35.7z"/>
	<path class="st0" d="M22.6,0.5c0,0-0.1,0-0.1,0c-0.1,0-2.4,0.6-4.8,3c-0.2,0.2-4.1,4.8-2.9,12.8c0,0.3,0.3,0.5,0.6,0.5
		c0,0,0.1,0,0.1,0c0.3,0,0.5-0.3,0.5-0.6c-1.1-7.5,2.6-11.9,2.6-11.9c1.8-1.8,3.6-2.5,4.1-2.6c0.1,0.1,0.6,0.5,0.6,2.2
		c0,0.1-0.6,8.7-4.2,10.8c-0.3,0.2-0.4,0.5-0.2,0.8c0.2,0.3,0.5,0.4,0.8,0.2c4.1-2.4,4.8-11.3,4.8-11.7C24.3,0.6,22.8,0.5,22.6,0.5z
		"/>
	<path class="st0" d="M17.8,26.5c-0.2-0.2-0.6-0.3-0.8-0.1c-5.6,4.7-9.2,0.9-9.3,0.7c-0.1-0.1-0.3-0.2-0.5-0.2
		c-1.8,0.2-3.2-0.1-3.9-0.7c-0.3-0.3-0.5-0.6-0.5-1c0-0.4,0-1.3,0-1.7c0-0.2-0.1-0.3-0.2-0.4C2.5,23,2.4,23,2.2,23H1.1
		c-0.3,0-0.6,0.3-0.6,0.6c0,0.3,0.3,0.6,0.6,0.6h0.5c0,0.4,0,0.9,0,1.2C1.7,26,2,26.6,2.6,27.1c0.9,0.8,2.4,1.1,4.5,1
		c0.6,0.5,2.2,1.8,4.6,1.8c1.7,0,3.8-0.6,6.1-2.6C18,27.1,18,26.7,17.8,26.5z"/>
	<path class="st0" d="M15,10.6c-0.2,0-5.8,1.2-7.6,2.9c-0.8,0.7-7.5,7-6.9,10.1c0.1,0.3,0.3,0.5,0.6,0.5c0,0,0.1,0,0.1,0
		c0.3-0.1,0.5-0.4,0.4-0.7c-0.4-1.8,3.8-6.5,6.6-9c1.3-1.3,5.5-2.4,7-2.7c0.3-0.1,0.5-0.4,0.4-0.7C15.6,10.8,15.3,10.6,15,10.6z"/>
</g>
</svg>
