<?xml version="1.0" encoding="utf-8"?>
<!-- Generator: Adobe Illustrator 22.0.1, SVG Export Plug-In . SVG Version: 6.00 Build 0)  -->
<svg version="1.1" id="Capa_1" xmlns="http://www.w3.org/2000/svg" xmlns:xlink="http://www.w3.org/1999/xlink" x="0px" y="0px"
	 viewBox="0 0 37 37.5" style="enable-background:new 0 0 37 37.5;" xml:space="preserve">
<style type="text/css">
	.st0{fill:#FFFFFF;stroke:#FFFFFF;stroke-miterlimit:10;}
</style>
<path class="st0" d="M36.5,21.9C32.1,12.2,26.2,8.8,22,7.6c-0.3-0.1-0.6,0.1-0.7,0.4c-0.1,0.3,0.1,0.6,0.4,0.7
	c4,1.1,9.6,4.4,13.7,13.7c0.1,0.2,0.3,0.3,0.5,0.3c0.1,0,0.2,0,0.2,0C36.4,22.5,36.6,22.2,36.5,21.9z"/>
<path class="st0" d="M13.7,23c-4.2-4.1-10.2-4.4-12.1-4.3c0.1-3.4,3.5-5.4,3.5-5.4c0.3-0.2,0.4-0.5,0.2-0.8
	c-0.2-0.3-0.5-0.4-0.8-0.2c-0.2,0.1-4.5,2.6-4.1,7c0,0.3,0.3,0.5,0.6,0.5c0.1,0,7.2-0.5,11.8,4c2.9,2.8,4.2,7.1,3.9,12.6
	c0,0.3,0.2,0.6,0.5,0.6c0,0,0,0,0,0c0.3,0,0.5-0.2,0.6-0.5C18.3,30.6,16.9,26.1,13.7,23z"/>
<path class="st0" d="M17.4,15.5c-0.3,0-0.6-0.3-0.6-0.6c0-0.8-0.8-1.5-1.9-1.5c-1,0-1.8,0.7-1.8,1.5c0,0.3-0.3,0.6-0.6,0.6
	c-0.3,0-0.6-0.3-0.6-0.6c0-1.5,1.3-2.6,3-2.6c1.6,0,3,1.2,3,2.6C17.9,15.2,17.7,15.5,17.4,15.5z"/>
<path class="st0" d="M15.2,30.3c-0.4,0.2-0.9,0.3-1.4,0.4c-1.6,0.3-3.3-0.1-4.6-1.1c-1.4-1-2.2-2.4-2.5-4.1c-0.2-1.3,0-2.6,0.6-3.8
	c-0.4-0.1-0.8-0.2-1.1-0.3c-0.6,1.3-0.8,2.8-0.6,4.3c0.3,1.9,1.4,3.6,3,4.8c1.3,0.9,2.7,1.4,4.3,1.4c0.4,0,0.8,0,1.2-0.1
	c0.5-0.1,1-0.2,1.4-0.4C15.4,31.1,15.3,30.7,15.2,30.3z"/>
<path class="st0" d="M3.3,9.5c0.1-1.8,1.3-2.9,1.4-3C6,5.4,7.2,5.3,8,5.4C8.1,3.1,9.8,2,10.7,1.7c1.8-0.5,3.2,0.3,3.9,0.8
	c0.1-0.1,0.1-0.2,0.2-0.3c0.9-1,2.4-1.7,3.7-1.8c0.6,0,1.3,0.1,1.9,0.3c2.3,0.7,3.9,2.7,4.3,5.4c0.1,0.8,0.1,1.5,0.1,2.1
	c0,0.2-0.1,0.3-0.3,0.4c-0.1,0.1-0.2,0.1-0.3,0.1c-0.3,0-0.5-0.3-0.5-0.6c0.1-0.6,0-1.2-0.1-1.8c-0.3-2.2-1.6-3.9-3.5-4.4
	c-0.5-0.2-1.1-0.2-1.5-0.2c-1,0.1-2.3,0.7-2.9,1.4c-0.2,0.2-0.3,0.4-0.3,0.6C15.3,3.8,15.2,4,14.9,4c-0.2,0-0.4,0-0.6-0.2
	c0,0-1.3-1.6-3.4-1.1c-0.1,0-2.1,0.6-1.9,3.2c0,0.2-0.1,0.4-0.2,0.5C8.7,6.6,8.5,6.6,8.3,6.6C8.3,6.5,7,6.1,5.4,7.4c0,0-1,0.9-1,2.2
	c0,0.9,0.4,1.9,1.3,2.9C6,12.6,6,13,5.7,13.2c-0.2,0.2-0.6,0.2-0.8,0C3.8,12,3.2,10.7,3.3,9.5z"/>
</svg>
