<?xml version="1.0" encoding="utf-8"?>
<!-- Generator: Adobe Illustrator 22.0.1, SVG Export Plug-In . SVG Version: 6.00 Build 0)  -->
<svg version="1.1" id="Capa_1" xmlns="http://www.w3.org/2000/svg" xmlns:xlink="http://www.w3.org/1999/xlink" x="0px" y="0px"
	 viewBox="0 0 35.3 45.1" style="enable-background:new 0 0 35.3 45.1;" xml:space="preserve">
<style type="text/css">
	.st0{fill-rule:evenodd;clip-rule:evenodd;fill:#3E9CFB;stroke:#3E9CFB;stroke-miterlimit:10;}
</style>
<path class="st0" d="M17.4,44.6c-5.6,0-11.2,0-16.9,0c-0.1-2,1.2-3.7,2.4-5C0,29.3-0.3,18.5,2.6,8C1.2,5.4,0.5,3.1,0.9,0.5
	c5.5,0,10.7,0,16.2,0c5.5,0,11.8,0,17.3,0C34.8,3.1,34,5.4,32.7,8c2.9,10.5,2.5,21.2-0.4,31.6c1.2,1.2,2.5,3,2.4,5
	C29.1,44.6,23,44.6,17.4,44.6L17.4,44.6z M1.3,43.8c5.3,0,10.7,0,16,0c5.5,0,11,0,16.6,0c-0.2-1.4-1.2-2.7-2.2-3.6l-0.3-0.3l0.1-0.4
	c2.9-10.3,3.2-20.9,0.4-31.2l-0.1-0.3L32,7.7c1.1-2,1.8-4.1,1.7-6.4c-5.5,0-11.1,0-16.6,0c-5.2,0-10.3,0-15.5,0
	C1.4,3.6,2.2,5.6,3.2,7.7l0.1,0.3L3.3,8.2C0.5,18.6,0.8,29.2,3.7,39.4l0.1,0.4l-0.3,0.3C2.5,41.2,1.6,42.4,1.3,43.8L1.3,43.8z"/>
<polygon class="st0" points="7.6,38.6 8.5,38.6 8.5,41.9 7.6,41.9 7.6,38.6 "/>
<polygon class="st0" points="12.3,38.6 13.2,38.6 13.2,41.9 12.3,41.9 12.3,38.6 "/>
<polygon class="st0" points="17,38.6 17.9,38.6 17.9,41.9 17,41.9 17,38.6 "/>
<polygon class="st0" points="21.6,38.6 22.6,38.6 22.6,41.9 21.6,41.9 21.6,38.6 "/>
<polygon class="st0" points="26.3,38.6 27.3,38.6 27.3,41.9 26.3,41.9 26.3,38.6 "/>
<polygon class="st0" points="7.6,2.9 8.5,2.9 8.5,6.1 7.6,6.1 7.6,2.9 "/>
<polygon class="st0" points="12.3,2.9 13.2,2.9 13.2,6.1 12.3,6.1 12.3,2.9 "/>
<polygon class="st0" points="17,2.9 17.9,2.9 17.9,6.1 17,6.1 17,2.9 "/>
<polygon class="st0" points="21.6,2.9 22.6,2.9 22.6,6.1 21.6,6.1 21.6,2.9 "/>
<polygon class="st0" points="26.3,2.9 27.3,2.9 27.3,6.1 26.3,6.1 26.3,2.9 "/>
</svg>
