<?xml version="1.0" encoding="utf-8"?>
<!-- Generator: Adobe Illustrator 22.0.1, SVG Export Plug-In . SVG Version: 6.00 Build 0)  -->
<svg version="1.1" id="Capa_1" xmlns="http://www.w3.org/2000/svg" xmlns:xlink="http://www.w3.org/1999/xlink" x="0px" y="0px"
	 viewBox="0 0 37 36.2" style="enable-background:new 0 0 37 36.2;" xml:space="preserve">
<style type="text/css">
	.st0{fill:#3E9CFB;stroke:#3E9CFB;stroke-miterlimit:10;}
</style>
<g id="hen_2_">
	<path class="st0" d="M36.5,20.6C32.1,10.9,26.2,7.4,22,6.3c-0.3-0.1-0.6,0.1-0.7,0.4c-0.1,0.3,0.1,0.6,0.4,0.7
		c4,1.1,9.6,4.4,13.7,13.7c0.1,0.2,0.3,0.3,0.5,0.3c0.1,0,0.2,0,0.2,0C36.4,21.2,36.6,20.9,36.5,20.6z"/>
	<path class="st0" d="M13.7,21.7c-4.2-4.1-10.2-4.4-12.1-4.3C1.7,14,5.1,12,5.2,12c0.3-0.2,0.4-0.5,0.2-0.8C5.2,11,4.9,10.9,4.6,11
		c-0.2,0.1-4.5,2.6-4.1,7c0,0.3,0.3,0.5,0.6,0.5c0.1,0,7.2-0.5,11.8,4c2.9,2.8,4.2,7.1,3.9,12.6c0,0.3,0.2,0.6,0.5,0.6c0,0,0,0,0,0
		c0.3,0,0.5-0.2,0.6-0.5C18.3,29.3,16.9,24.8,13.7,21.7z"/>
	<path class="st0" d="M17.4,10.9c-0.3,0-0.6,0.3-0.6,0.6c0,0.8-0.8,1.5-1.9,1.5c-1,0-1.8-0.7-1.8-1.5c0-0.3-0.3-0.6-0.6-0.6
		c-0.3,0-0.6,0.3-0.6,0.6c0,1.5,1.3,2.6,3,2.6c1.6,0,3-1.2,3-2.6C17.9,11.2,17.7,10.9,17.4,10.9z"/>
	<path class="st0" d="M15.2,29c-0.4,0.2-0.9,0.3-1.4,0.4c-1.6,0.3-3.3-0.1-4.6-1.1c-1.4-1-2.2-2.4-2.5-4.1c-0.2-1.3,0-2.6,0.6-3.8
		c-0.4-0.1-0.8-0.2-1.1-0.3c-0.6,1.3-0.8,2.8-0.6,4.3c0.3,1.9,1.4,3.6,3,4.8c1.3,0.9,2.7,1.4,4.3,1.4c0.4,0,0.8,0,1.2-0.1
		c0.5-0.1,1-0.2,1.4-0.4C15.4,29.7,15.3,29.4,15.2,29z"/>
	<path class="st0" d="M24.8,3.4c-1-1.5-2.6-1.8-2.7-1.8c-1.7-0.2-2.8,0.3-3.4,0.7c-1.3-1.9-3.3-2-4.2-1.7c-1.8,0.5-2.6,1.9-2.9,2.7
		c-0.1,0-0.2-0.1-0.3-0.1C9.9,2.8,8.2,3,7.1,3.6C6.6,3.9,6,4.3,5.6,4.9C4,6.6,3.6,9.2,4.6,11.7c0.3,0.7,0.6,1.3,1,1.9
		c0.1,0.1,0.3,0.2,0.5,0.2c0.1,0,0.2,0,0.3-0.1c0.2-0.2,0.3-0.5,0.1-0.8c-0.3-0.5-0.6-1-0.9-1.6C4.8,9.1,5.1,7.1,6.4,5.6
		c0.4-0.4,0.8-0.8,1.2-1C8.5,4.1,9.9,4,10.8,4.3c0.2,0.1,0.4,0.2,0.6,0.3c0.2,0.1,0.4,0.2,0.6,0.1c0.2-0.1,0.3-0.2,0.4-0.5
		c0,0,0.3-2.1,2.3-2.6c0.1,0,2.1-0.5,3.3,1.8c0.1,0.2,0.3,0.3,0.4,0.3c0.2,0,0.4-0.1,0.5-0.2c0,0,0.9-1.1,2.9-0.8c0,0,1.3,0.3,2,1.3
		c0.5,0.8,0.6,1.9,0.3,3.2c-0.1,0.3,0.1,0.6,0.4,0.7c0.3,0.1,0.6-0.1,0.7-0.4C25.6,5.9,25.5,4.5,24.8,3.4z"/>
</g>
</svg>
