<?xml version="1.0" encoding="utf-8"?>
<!-- Generator: Adobe Illustrator 22.0.1, SVG Export Plug-In . SVG Version: 6.00 Build 0)  -->
<svg version="1.1" id="Capa_1" xmlns="http://www.w3.org/2000/svg" xmlns:xlink="http://www.w3.org/1999/xlink" x="0px" y="0px"
	 viewBox="0 0 37 36.9" style="enable-background:new 0 0 37 36.9;" xml:space="preserve">
<style type="text/css">
	.st0{fill:#FFFFFF;stroke:#FFFFFF;stroke-miterlimit:10;}
</style>
<g id="quail_bird">
	<path class="st0" d="M16.2,6.1c-0.3,0-0.6,0.3-0.6,0.6c0,0.6-0.6,1.2-1.3,1.2c-0.7,0-1.3-0.5-1.3-1.2c0-0.3-0.3-0.6-0.6-0.6
		c-0.3,0-0.6,0.3-0.6,0.6C11.9,8,13,9,14.3,9c1.4,0,2.5-1,2.5-2.3C16.8,6.4,16.6,6.1,16.2,6.1z"/>
	<path class="st0" d="M11.9,35.4c-3-3.4-2.2-8.4-1.5-12.4c0.2-1.1,0.4-2.2,0.4-3.1c0.3-3.1-0.6-5.3-2-6.9c0,0,0-0.1-0.1-0.1
		c-0.4-0.5-0.5-1-0.4-1.4c0.2-0.8,1-1.2,1-1.2c0.2-0.1,0.3-0.2,0.3-0.4c0-0.2,0-0.4-0.2-0.5C7.6,7.4,7.9,6,8,5.9
		C8,5.7,8,5.5,7.9,5.4C7.8,5.2,7.6,5.2,7.4,5.2c-5.6,0-6.9,4.4-6.9,4.5c0,0.2,0,0.3,0.1,0.5c0.1,0.1,0.2,0.2,0.4,0.2
		c0.4,0,9.5,1,8.7,9.5c-0.1,0.9-0.3,1.9-0.4,3c-0.7,4.2-1.6,9.5,1.7,13.3c0.1,0.1,0.3,0.2,0.4,0.2c0.1,0,0.3,0,0.4-0.1
		C12.1,36,12.1,35.7,11.9,35.4z M7.3,11.2c0,0.1,0,0.2-0.1,0.3c-2-1.4-4.2-2-5.4-2.2c0.5-1,1.8-2.8,4.9-3c0,0.7,0.3,2,1.5,3.4
		C7.9,10,7.4,10.5,7.3,11.2z"/>
	<path class="st0" d="M34,23c-3.9-2.6-5.1-4.5-6.4-6.8c-0.4-0.6-0.8-1.3-1.3-2c-3.6-5.3-5.8-4.5-8.2-3.6c-1.6,0.5-3.2,1.1-5.5,0.1
		c-0.3-0.1-0.6,0-0.7,0.2c-0.2,0.2-0.1,0.5,0.1,0.7c0,0,4.5,4.1,3.8,8.4c-0.4,2.6-2.5,4.8-6.3,6.7c-0.3,0.1-0.4,0.5-0.3,0.7
		c0.1,0.2,0.3,0.3,0.5,0.3c0.1,0,0.2,0,0.2-0.1c4.2-2,6.5-4.5,6.9-7.5c0.5-3.2-1.4-6.2-2.8-7.9c1.7,0.3,3.1-0.2,4.3-0.6
		c2.2-0.8,3.8-1.3,6.9,3.2c0.5,0.7,0.9,1.3,1.2,2c1.4,2.3,2.7,4.5,6.8,7.2c0.3,0.2,0.6,0.1,0.8-0.2C34.3,23.5,34.3,23.2,34,23z"/>
	<path class="st0" d="M36.1,13.9c-2.1-0.5-3.5-3.1-4.1-4.2C26.3-0.5,15.7,0.5,15.6,0.5C9.3,0.9,7,5.3,6.9,5.5
		c-0.1,0.3,0,0.6,0.2,0.8c0.3,0.1,0.6,0,0.8-0.2c0.1-0.2,2.2-4,7.8-4.3c0.1,0,9.9-1,15.2,8.6c0.7,1.2,2.3,4.1,4.8,4.8
		c0,0,0.1,0,0.1,0c0.3,0,0.5-0.2,0.5-0.4C36.6,14.3,36.4,14,36.1,13.9z"/>
	<path class="st0" d="M29.1,11.9c-3.3-5.1-7.3-7.8-12.2-8.1c-0.3-0.1-0.6,0.2-0.6,0.5c0,0.3,0.2,0.6,0.5,0.6
		c4.5,0.3,8.3,2.8,11.4,7.6c0.1,0.2,0.3,0.3,0.5,0.3c0.1,0,0.2,0,0.3-0.1C29.2,12.5,29.3,12.2,29.1,11.9z"/>
	<path class="st0" d="M7.8,7.7H6.7C6.4,7.7,6.1,8,6.1,8.3c0,0.3,0.3,0.6,0.6,0.6h1.1c0.3,0,0.6-0.3,0.6-0.6C8.4,8,8.1,7.7,7.8,7.7z"
		/>
</g>
</svg>
