<?xml version="1.0" encoding="utf-8"?>
<!-- Generator: Adobe Illustrator 22.0.1, SVG Export Plug-In . SVG Version: 6.00 Build 0)  -->
<svg version="1.1" id="Capa_1" xmlns="http://www.w3.org/2000/svg" xmlns:xlink="http://www.w3.org/1999/xlink" x="0px" y="0px"
	 viewBox="0 0 36.9 37" style="enable-background:new 0 0 36.9 37;" xml:space="preserve">
<style type="text/css">
	.st0{fill:#FFFFFF;stroke:#FFFFFF;stroke-miterlimit:10;}
</style>
<g id="pig">
	<path class="st0" d="M35.8,35.4c-3.3,0.1-6.9-0.1-10.1-0.6c-4.8-0.8-9.7-2.2-13.8-4c-1.9-0.9-3.4-1.6-4.8-2.4
		C6.8,28.1,4.6,27,3.3,27c-0.7,0-1.2-0.2-1.5-0.5c-0.2-0.2-0.2-0.6-0.1-1c0.3-1.6,0.2-3,0.2-4.3c0-0.7-0.1-1.3,0-1.8
		c0-0.2,0-0.3,0.1-0.4C1.9,19,2,19,2,19c0.3,0.2,0.8,0.4,1.3,0.4c1.9,0,4.2-1.2,5.9-2l0.2-0.1c3.2-1.7,6-3.8,7.9-6l1-1.2
		c0.2-0.2,0.2-0.6-0.1-0.8c-0.2-0.2-0.6-0.2-0.8,0.1l-1,1.2c-1.8,2.1-4.5,4.1-7.5,5.7l-0.2,0.1c-1.6,0.8-3.7,1.9-5.3,1.9
		c-0.3,0-0.5-0.1-0.8-0.3c-0.4-0.2-0.8-0.4-1.3-0.2c-0.5,0.3-0.6,0.9-0.6,1.4c0,0.6,0,1.2,0,2c0.1,1.2,0.2,2.6-0.1,4
		c-0.2,1,0.1,1.6,0.4,1.9c0.5,0.6,1.3,0.9,2.3,0.9c0.9,0,2.8,0.9,3.2,1.2c1.4,0.8,2.9,1.6,4.9,2.5c4.1,1.9,9.1,3.3,14.1,4.1
		c2.8,0.4,5.8,0.7,8.8,0.7c0.5,0,1,0,1.6,0c0.3,0,0.6-0.3,0.5-0.6C36.4,35.6,36.1,35.4,35.8,35.4z"/>
	<path class="st0" d="M35.9,0.6c-1.8-0.1-4.8-0.3-7.7,0.3c-0.3,0.1-0.5,0.4-0.4,0.7C27.8,1.9,28,2,28.3,2c0,0,0.1,0,0.1,0
		c2.8-0.6,5.7-0.4,7.4-0.3c0.3,0,0.6-0.2,0.6-0.5C36.4,0.9,36.2,0.6,35.9,0.6z"/>
	<path class="st0" d="M20.3,15.3c-0.1-0.3-0.4-0.4-0.7-0.3c-1.6,0.6-2.2,0-2.3-0.1c-0.2-0.2-0.5-0.3-0.8-0.1
		c-0.2,0.2-0.3,0.6-0.1,0.8c0,0,0.6,0.7,1.9,0.7c0.5,0,1-0.1,1.6-0.3C20.3,15.9,20.5,15.5,20.3,15.3z"/>
	<path class="st0" d="M13.5,25.2c-0.3-1-4.2,0.1-4.2,0.1L9,25.4C7.3,26,4.3,27,3.3,27c-0.3,0-0.6,0.3-0.6,0.6c0,0.3,0.3,0.6,0.6,0.6
		c1.1,0,3.5-0.8,6.1-1.6l0.2-0.1c1.3-0.4,2.7-0.5,3.1-0.4c0.1,0,0.3,0.1,0.4,0C13.4,25.8,13.6,25.5,13.5,25.2z"/>
	<path class="st0" d="M34,9.6c-0.3,0-0.6,0.2-0.6,0.5c-0.2,1.3-0.7,2.1-1.7,2.5c-4.6,2.1-16.4-4.7-21.3-7.7c2,0.1,4.8,0,7.4-1.2
		c6.5-3.1,10.2-2,12.1-0.5c0.2,0.2,0.6,0.1,0.8-0.1c0.2-0.2,0.1-0.6-0.1-0.8c-2.2-1.7-6.3-3-13.3,0.3c-4.1,2-9.2,0.8-9.2,0.8
		C7.8,3.4,7.5,3.5,7.4,3.8C7.3,4,7.4,4.3,7.6,4.5c0.7,0.4,14.5,9.6,22,9.6c0.9,0,1.8-0.1,2.5-0.5c1.3-0.6,2.1-1.7,2.4-3.4
		C34.5,9.9,34.3,9.6,34,9.6z"/>
</g>
</svg>
