<?xml version="1.0" encoding="utf-8"?>
<!-- Generator: Adobe Illustrator 22.0.1, SVG Export Plug-In . SVG Version: 6.00 Build 0)  -->
<svg version="1.1" id="Capa_1" xmlns="http://www.w3.org/2000/svg" xmlns:xlink="http://www.w3.org/1999/xlink" x="0px" y="0px"
	 viewBox="0 0 43.6 34.5" style="enable-background:new 0 0 43.6 34.5;" xml:space="preserve">
<style type="text/css">
	.st0{fill:#FFFFFF;stroke:#FFFFFF;stroke-miterlimit:10;}
	.st1{fill-rule:evenodd;clip-rule:evenodd;fill:#FFFFFF;stroke:#FFFFFF;stroke-miterlimit:10;}
</style>
<path class="st0" d="M21,10.6c-0.3-0.2-0.8-0.1-0.9,0.3c0,0-0.4,0.6-0.9,0.8c-0.4,0.1-0.8,0-1.2-0.3c-0.3-0.2-0.7-0.1-0.9,0.1
	l-0.8,0.9c-0.3,0.3-0.2,0.7,0.1,1c0.1,0.1,0.3,0.2,0.4,0.2c0.2,0,0.4-0.1,0.5-0.2l0.4-0.5c0.6,0.3,1.2,0.4,1.8,0.2
	c1.2-0.3,1.8-1.3,1.8-1.5C21.5,11.2,21.4,10.8,21,10.6L21,10.6z"/>
<path class="st1" d="M28,14.7c-1.4,3.6-1.2,6.4,0.5,10c1,2,2.6,4.1,5,4.2c2.5,0.1,4.6-2,5.9-4c1.8-2.9,2.3-6.6,1.7-9.9
	c-1.1-6-5.3-10.3-11.2-12C25.4,1.6,19.4,2,16,5.6c-2.4,2.5-4.3,8-7.5,9.3c-2,0.8-4.3,1.3-6.2,2.4c-0.2,1.2,0.5,3.9,0.7,5
	c0.2,0.9,1,1.6,1.8,2c1.4,0.6,3,0.7,4.5,0.4c3-0.6,5.8-0.5,8.7,0.5c2.5,0.9,4.4,1.9,6.1,4c0.9,1.2,1.1,2.7,0.7,4.1l-0.2,0.9
	l-1.7-0.4l0.2-0.9c0.2-0.9,0.2-1.9-0.4-2.7c-1.5-1.8-3.1-2.7-5.3-3.4c-2.6-0.9-5.1-0.9-7.8-0.4c-1.8,0.3-3.8,0.3-5.6-0.5
	c-1.3-0.6-2.5-1.7-2.8-3.2c-0.4-1.7-1.2-4.6-0.6-6.3L0.8,16l0.2-0.2c2.1-1.3,4.5-1.8,6.7-2.7c1.5-0.6,3.1-3.2,3.9-4.6
	c0.9-1.4,1.9-3.1,3-4.3c3.9-4,10.6-4.6,15.7-3.1c6.5,1.9,11.2,6.7,12.4,13.4c0.7,3.8,0.1,7.9-1.9,11.2c-1.6,2.5-4.2,4.9-7.4,4.8
	c-3.2-0.1-5.3-2.5-6.6-5.2c-1.9-4-2.1-7.3-0.5-11.4l0-0.1l0-0.1c1.2-2,2.5-4.9-0.3-6.2l-0.8-0.4l0.7-1.6l0.8,0.4
	C30.9,7.8,29.8,11.6,28,14.7L28,14.7z"/>
</svg>
