<?xml version="1.0" encoding="utf-8"?>
<!-- Generator: Adobe Illustrator 22.0.1, SVG Export Plug-In . SVG Version: 6.00 Build 0)  -->
<svg version="1.1" id="Capa_1" xmlns="http://www.w3.org/2000/svg" xmlns:xlink="http://www.w3.org/1999/xlink" x="0px" y="0px"
	 viewBox="0 0 36.8 37" style="enable-background:new 0 0 36.8 37;" xml:space="preserve">
<style type="text/css">
	.st0{fill:#3E9CFB;stroke:#3E9CFB;stroke-miterlimit:10;}
</style>
<g id="veal_1_">
	<path class="st0" d="M25.3,0.6c-0.2-0.1-0.4-0.1-0.6,0l-3.5,2.3C20,1.7,16.7,1.6,16,1.6c-2.4,0-4.6,3.6-5.1,4.4
		c-0.8,0.5-4.6,3.1-5,6.7c-0.4,3.5-1,4.8-4.2,9.4c-2,2.9-1.1,4.3-0.1,5.2c0.1,0,0.1,0.1,0.2,0.2c0.6,0.4,2.8,1.9,4.6,1.9
		c0.5,0,1-0.1,1.4-0.5c0.3-0.2,1.2-0.7,2.1-1.7c0.2-0.2,0.2-0.6-0.1-0.8c-0.2-0.2-0.6-0.2-0.8,0.1c-0.8,1-1.8,1.5-1.8,1.5
		c-0.1,0-0.1,0.1-0.1,0.1c-0.7,0.7-3.2-0.4-4.6-1.4c-0.1-0.1-0.1-0.1-0.2-0.2c-0.5-0.5-1.4-1.2,0.3-3.7c3.3-4.8,3.9-6.2,4.4-9.9
		c0.4-3.4,4.6-6,4.6-6c0.1-0.1,0.1-0.1,0.2-0.2c0.6-1.1,2.6-4,4.2-4c1.7,0,4.2,0.4,4.4,1.1c0.1,0.2,0.2,0.3,0.3,0.4
		c0.2,0.1,0.3,0,0.5-0.1l3-2c-0.3,1.6-1.3,4.4-4.5,5.1c-0.3,0.1-0.5,0.4-0.4,0.7c0.1,0.3,0.4,0.5,0.7,0.4c5.4-1.2,5.5-7.2,5.5-7.3
		C25.6,0.9,25.5,0.7,25.3,0.6z"/>
	<path class="st0" d="M35.9,6.2c-3.4-1.1-11.6-1.7-12-1.7c-0.3,0-0.6,0.2-0.6,0.5c0,0.3,0.2,0.6,0.5,0.6c0.1,0,8.4,0.6,11.7,1.7
		c0.1,0,0.1,0,0.2,0c0.2,0,0.5-0.1,0.5-0.4C36.3,6.6,36.2,6.3,35.9,6.2z"/>
	<path class="st0" d="M30.6,35.6c-0.1-0.1-5.7-6.2-10-9.6c-1.1-0.9-8,0.6-12,1.6c-0.3,0.1-0.5,0.4-0.4,0.7c0.1,0.3,0.4,0.5,0.7,0.4
		c4.7-1.1,10.3-2.2,11-1.8c4.3,3.4,9.9,9.4,9.9,9.5c0.1,0.1,0.3,0.2,0.4,0.2c0.1,0,0.3,0,0.4-0.1C30.8,36.1,30.8,35.8,30.6,35.6z"/>
	<path class="st0" d="M16.4,12.4c-0.2-0.2-0.6-0.2-0.8,0c0,0-1,1-3.2,0.8c-0.3,0-0.6,0.2-0.6,0.5c0,0.3,0.2,0.6,0.5,0.6
		c0.3,0,0.5,0,0.8,0c2.3,0,3.3-1.1,3.4-1.1C16.6,13,16.6,12.6,16.4,12.4z"/>
	<path class="st0" d="M33,9c-0.1-0.1-0.2-0.2-0.3-0.3c-5.5-2.5-8.4-0.7-9.2-0.1h-1.2c-0.3,0-0.6,0.3-0.6,0.6c0,0.3,0.3,0.6,0.6,0.6
		h1.4c0.1,0,0.3-0.1,0.4-0.2c0.1-0.1,2.5-2.4,7.8,0c0,0.5-0.4,2.2-4.3,4.2c-1.2,0.6-3.7-1.1-4.4-1.8c-0.2-0.2-0.6-0.2-0.8,0.1
		c-0.2,0.2-0.2,0.6,0.1,0.8c0.3,0.3,2.6,2.2,4.6,2.2c0.4,0,0.8-0.1,1.1-0.2C33.9,11.9,33.1,9.3,33,9z"/>
</g>
</svg>
