<?xml version="1.0" encoding="utf-8"?>
<!-- Generator: Adobe Illustrator 22.0.1, SVG Export Plug-In . SVG Version: 6.00 Build 0)  -->
<svg version="1.1" id="Capa_1" xmlns="http://www.w3.org/2000/svg" xmlns:xlink="http://www.w3.org/1999/xlink" x="0px" y="0px"
	 viewBox="0 0 37 37" style="enable-background:new 0 0 37 37;" xml:space="preserve">
<style type="text/css">
	.st0{fill:#3E9CFB;stroke:#3E9CFB;stroke-miterlimit:10;}
</style>
<g id="duck_1_">
	<path class="st0" d="M24.4,7.7C24.4,7.7,24.3,7.7,24.4,7.7l-1,0c-0.2,0-0.4,0.1-0.5,0.3c0,0-0.3,0.6-0.8,0.7
		c-0.5,0.1-1-0.3-1.3-0.6C20.5,8,20.1,8,19.9,8.2C19.7,8.5,19.7,8.8,20,9c0.7,0.6,1.3,0.9,1.9,0.9c0.1,0,0.3,0,0.4,0
		c0.7-0.1,1.1-0.7,1.4-1l0.7,0c0.3,0,0.6-0.3,0.5-0.6C24.9,7.9,24.7,7.7,24.4,7.7z"/>
	<path class="st0" d="M17.1,14.9c-1-0.7-1.7-1.5-1.8-2.3c-0.3-1.3,0.5-2.4,0.5-2.4c0.1-0.2,0.1-0.5,0-0.7c-0.1-0.2-0.4-0.3-0.6-0.2
		l-0.7,0.2c0.1-0.1,0.1-0.3,0.1-0.4c0.1-0.3-0.2-0.6-0.5-0.6c-0.3-0.1-0.6,0.2-0.6,0.5c-0.2,1-1.7,2.1-2.6,2.8l-0.2,0.1
		c-1.4,1.1-2.6,1.9-4,2.6c-1.1,0.5-2.1,0.9-3.3,1.2c-1,0.2-1.7,0.6-1.8,0.7c-1.4,1-1.2,2.6-0.9,3.3c0.1,0.2,0.2,0.3,0.4,0.3
		C1.7,20,2.2,20,2.7,20c1.6,0,3.3-0.3,4.8-0.5l0.3,0c2.7-0.4,5.1-1.2,7.3-2.3c0.1,0,2.2-1.2,2.2-1.8C17.4,15.2,17.3,15,17.1,14.9z
		 M14.6,16.2c-2.1,1.1-4.4,1.8-7,2.2l-0.3,0c-1.8,0.3-3.9,0.6-5.7,0.4c-0.1-0.4-0.2-1.1,0.5-1.6c0,0,0.6-0.3,1.5-0.5
		c1.2-0.3,2.4-0.7,3.5-1.3c1.5-0.7,2.6-1.6,4.2-2.7l0.1-0.1c0.5-0.4,1.2-0.9,1.8-1.5l0.9-0.3c-0.2,0.5-0.2,1.2-0.1,1.9
		c0.2,1,0.8,1.9,1.7,2.6C15.4,15.7,14.7,16.1,14.6,16.2z"/>
	<path class="st0" d="M12.4,13.4c-0.2-0.3-0.5-0.3-0.8-0.2l-0.9,0.6c-0.3,0.2-0.3,0.5-0.2,0.8c0.1,0.2,0.3,0.3,0.5,0.3
		c0.1,0,0.2,0,0.3-0.1l0.9-0.6C12.5,14,12.6,13.7,12.4,13.4z"/>
	<path class="st0" d="M24.1,0.5c-9.6,0-10.9,9.4-10.9,9.4c0,0.3,0.2,0.6,0.5,0.6c0.3,0,0.6-0.2,0.6-0.5c0-0.3,1.2-8.5,9.8-8.5
		c6.2,0,11.3,5,11.3,11.3c0,4.2-2.3,8-6,10c-0.3,0.1-0.4,0.5-0.2,0.8c0.1,0.2,0.3,0.3,0.5,0.3c0.1,0,0.2,0,0.3-0.1
		c4.1-2.1,6.6-6.3,6.6-11C36.5,6.1,30.9,0.5,24.1,0.5z"/>
	<path class="st0" d="M18,17.8c-0.1-0.3-0.3-0.9-4.6-0.8c-0.3,0-0.6,0.3-0.5,0.6c0,0.3,0.2,0.6,0.6,0.5c0.9,0,1.9,0,2.6,0.1
		c-4.3,2.1-7.1,6.6-7.1,11.5c0,2.4,0.6,4.6,1.8,6.6c0.1,0.2,0.3,0.3,0.5,0.3c0.1,0,0.2,0,0.3-0.1c0.3-0.2,0.4-0.5,0.2-0.8
		c-1.1-1.8-1.6-3.9-1.6-6c0-4.8,3-9.2,7.4-10.9c0,0,0.1,0,0.1-0.1C18.1,18.3,18.1,17.9,18,17.8z"/>
</g>
</svg>
